<svg id="canvas" height="auto" xmlns="http://www.w3.org/2000/svg" version="1.1" xmlns:xlink="http://www.w3.org/1999/xlink" xmlns:svgjs="http://svgjs.dev/svgjs" viewBox="0 0 900 512" width="auto" style="width: auto; height: auto;"><rect width="900" height="512" fill="#000000"/><rect width="45" height="45" x="0" y="0" fill="#8270bb"/><rect width="45" height="45" x="45" y="0" fill="#f8f8f8"/><rect width="45" height="45" x="90" y="0" fill="#f8f8f8"/><rect width="45" height="45" x="135" y="0" fill="#8270bb"/><rect width="45" height="45" x="180" y="0" fill="#2e2d2d"/><rect width="45" height="45" x="225" y="0" fill="#8270bb"/><rect width="45" height="45" x="270" y="0" fill="#2e2d2d"/><rect width="45" height="45" x="315" y="0" fill="#8270bb"/><rect width="45" height="45" x="360" y="0" fill="#8270bb"/><rect width="45" height="45" x="405" y="0" fill="#8270bb"/><rect width="45" height="45" x="450" y="0" fill="#f8f8f8"/><rect width="45" height="45" x="495" y="0" fill="#8270bb"/><rect width="45" height="45" x="540" y="0" fill="#2e2d2d"/><rect width="45" height="45" x="585" y="0" fill="#2e2d2d"/><rect width="45" height="45" x="630" y="0" fill="#f8f8f8"/><rect width="45" height="45" x="675" y="0" fill="#2e2d2d"/><rect width="45" height="45" x="720" y="0" fill="#2e2d2d"/><rect width="45" height="45" x="765" y="0" fill="#f8f8f8"/><rect width="45" height="45" x="810" y="0" fill="#2e2d2d"/><rect width="45" height="45" x="855" y="0" fill="#8270bb"/><rect width="45" height="45" x="900" y="0" fill="#8270bb"/><rect width="45" height="45" x="0" y="45" fill="#8270bb"/><rect width="45" height="45" x="45" y="45" fill="#8270bb"/><rect width="45" height="45" x="90" y="45" fill="#8270bb"/><rect width="45" height="45" x="135" y="45" fill="#8270bb"/><rect width="45" height="45" x="180" y="45" fill="#8270bb"/><rect width="45" height="45" x="225" y="45" fill="#f8f8f8"/><rect width="45" height="45" x="270" y="45" fill="#8270bb"/><rect width="45" height="45" x="315" y="45" fill="#8270bb"/><rect width="45" height="45" x="360" y="45" fill="#8270bb"/><rect width="45" height="45" x="405" y="45" fill="#f8f8f8"/><rect width="45" height="45" x="450" y="45" fill="#2e2d2d"/><rect width="45" height="45" x="495" y="45" fill="#8270bb"/><rect width="45" height="45" x="540" y="45" fill="#8270bb"/><rect width="45" height="45" x="585" y="45" fill="#8270bb"/><rect width="45" height="45" x="630" y="45" fill="#8270bb"/><rect width="45" height="45" x="675" y="45" fill="#2e2d2d"/><rect width="45" height="45" x="720" y="45" fill="#f8f8f8"/><rect width="45" height="45" x="765" y="45" fill="#8270bb"/><rect width="45" height="45" x="810" y="45" fill="#f8f8f8"/><rect width="45" height="45" x="855" y="45" fill="#2e2d2d"/><rect width="45" height="45" x="900" y="45" fill="#8270bb"/><rect width="45" height="45" x="0" y="90" fill="#2e2d2d"/><rect width="45" height="45" x="45" y="90" fill="#8270bb"/><rect width="45" height="45" x="90" y="90" fill="#8270bb"/><rect width="45" height="45" x="135" y="90" fill="#f8f8f8"/><rect width="45" height="45" x="180" y="90" fill="#2e2d2d"/><rect width="45" height="45" x="225" y="90" fill="#f8f8f8"/><rect width="45" height="45" x="270" y="90" fill="#f8f8f8"/><rect width="45" height="45" x="315" y="90" fill="#f8f8f8"/><rect width="45" height="45" x="360" y="90" fill="#f8f8f8"/><rect width="45" height="45" x="405" y="90" fill="#8270bb"/><rect width="45" height="45" x="450" y="90" fill="#2e2d2d"/><rect width="45" height="45" x="495" y="90" fill="#8270bb"/><rect width="45" height="45" x="540" y="90" fill="#8270bb"/><rect width="45" height="45" x="585" y="90" fill="#f8f8f8"/><rect width="45" height="45" x="630" y="90" fill="#8270bb"/><rect width="45" height="45" x="675" y="90" fill="#2e2d2d"/><rect width="45" height="45" x="720" y="90" fill="#8270bb"/><rect width="45" height="45" x="765" y="90" fill="#2e2d2d"/><rect width="45" height="45" x="810" y="90" fill="#8270bb"/><rect width="45" height="45" x="855" y="90" fill="#f8f8f8"/><rect width="45" height="45" x="900" y="90" fill="#f8f8f8"/><rect width="45" height="45" x="0" y="135" fill="#8270bb"/><rect width="45" height="45" x="45" y="135" fill="#2e2d2d"/><rect width="45" height="45" x="90" y="135" fill="#2e2d2d"/><rect width="45" height="45" x="135" y="135" fill="#f8f8f8"/><rect width="45" height="45" x="180" y="135" fill="#8270bb"/><rect width="45" height="45" x="225" y="135" fill="#f8f8f8"/><rect width="45" height="45" x="270" y="135" fill="#8270bb"/><rect width="45" height="45" x="315" y="135" fill="#2e2d2d"/><rect width="45" height="45" x="360" y="135" fill="#8270bb"/><rect width="45" height="45" x="405" y="135" fill="#f8f8f8"/><rect width="45" height="45" x="450" y="135" fill="#f8f8f8"/><rect width="45" height="45" x="495" y="135" fill="#8270bb"/><rect width="45" height="45" x="540" y="135" fill="#2e2d2d"/><rect width="45" height="45" x="585" y="135" fill="#2e2d2d"/><rect width="45" height="45" x="630" y="135" fill="#8270bb"/><rect width="45" height="45" x="675" y="135" fill="#2e2d2d"/><rect width="45" height="45" x="720" y="135" fill="#f8f8f8"/><rect width="45" height="45" x="765" y="135" fill="#f8f8f8"/><rect width="45" height="45" x="810" y="135" fill="#8270bb"/><rect width="45" height="45" x="855" y="135" fill="#8270bb"/><rect width="45" height="45" x="900" y="135" fill="#2e2d2d"/><rect width="45" height="45" x="0" y="180" fill="#f8f8f8"/><rect width="45" height="45" x="45" y="180" fill="#8270bb"/><rect width="45" height="45" x="90" y="180" fill="#f8f8f8"/><rect width="45" height="45" x="135" y="180" fill="#8270bb"/><rect width="45" height="45" x="180" y="180" fill="#8270bb"/><rect width="45" height="45" x="225" y="180" fill="#8270bb"/><rect width="45" height="45" x="270" y="180" fill="#8270bb"/><rect width="45" height="45" x="315" y="180" fill="#8270bb"/><rect width="45" height="45" x="360" y="180" fill="#8270bb"/><rect width="45" height="45" x="405" y="180" fill="#8270bb"/><rect width="45" height="45" x="450" y="180" fill="#8270bb"/><rect width="45" height="45" x="495" y="180" fill="#8270bb"/><rect width="45" height="45" x="540" y="180" fill="#8270bb"/><rect width="45" height="45" x="585" y="180" fill="#2e2d2d"/><rect width="45" height="45" x="630" y="180" fill="#8270bb"/><rect width="45" height="45" x="675" y="180" fill="#8270bb"/><rect width="45" height="45" x="720" y="180" fill="#8270bb"/><rect width="45" height="45" x="765" y="180" fill="#2e2d2d"/><rect width="45" height="45" x="810" y="180" fill="#2e2d2d"/><rect width="45" height="45" x="855" y="180" fill="#8270bb"/><rect width="45" height="45" x="900" y="180" fill="#8270bb"/><rect width="45" height="45" x="0" y="225" fill="#2e2d2d"/><rect width="45" height="45" x="45" y="225" fill="#f8f8f8"/><rect width="45" height="45" x="90" y="225" fill="#f8f8f8"/><rect width="45" height="45" x="135" y="225" fill="#8270bb"/><rect width="45" height="45" x="180" y="225" fill="#8270bb"/><rect width="45" height="45" x="225" y="225" fill="#2e2d2d"/><rect width="45" height="45" x="270" y="225" fill="#2e2d2d"/><rect width="45" height="45" x="315" y="225" fill="#8270bb"/><rect width="45" height="45" x="360" y="225" fill="#f8f8f8"/><rect width="45" height="45" x="405" y="225" fill="#8270bb"/><rect width="45" height="45" x="450" y="225" fill="#8270bb"/><rect width="45" height="45" x="495" y="225" fill="#8270bb"/><rect width="45" height="45" x="540" y="225" fill="#8270bb"/><rect width="45" height="45" x="585" y="225" fill="#2e2d2d"/><rect width="45" height="45" x="630" y="225" fill="#f8f8f8"/><rect width="45" height="45" x="675" y="225" fill="#f8f8f8"/><rect width="45" height="45" x="720" y="225" fill="#8270bb"/><rect width="45" height="45" x="765" y="225" fill="#2e2d2d"/><rect width="45" height="45" x="810" y="225" fill="#8270bb"/><rect width="45" height="45" x="855" y="225" fill="#8270bb"/><rect width="45" height="45" x="900" y="225" fill="#8270bb"/><rect width="45" height="45" x="0" y="270" fill="#2e2d2d"/><rect width="45" height="45" x="45" y="270" fill="#f8f8f8"/><rect width="45" height="45" x="90" y="270" fill="#8270bb"/><rect width="45" height="45" x="135" y="270" fill="#8270bb"/><rect width="45" height="45" x="180" y="270" fill="#f8f8f8"/><rect width="45" height="45" x="225" y="270" fill="#2e2d2d"/><rect width="45" height="45" x="270" y="270" fill="#8270bb"/><rect width="45" height="45" x="315" y="270" fill="#f8f8f8"/><rect width="45" height="45" x="360" y="270" fill="#8270bb"/><rect width="45" height="45" x="405" y="270" fill="#f8f8f8"/><rect width="45" height="45" x="450" y="270" fill="#8270bb"/><rect width="45" height="45" x="495" y="270" fill="#8270bb"/><rect width="45" height="45" x="540" y="270" fill="#f8f8f8"/><rect width="45" height="45" x="585" y="270" fill="#8270bb"/><rect width="45" height="45" x="630" y="270" fill="#8270bb"/><rect width="45" height="45" x="675" y="270" fill="#f8f8f8"/><rect width="45" height="45" x="720" y="270" fill="#8270bb"/><rect width="45" height="45" x="765" y="270" fill="#f8f8f8"/><rect width="45" height="45" x="810" y="270" fill="#8270bb"/><rect width="45" height="45" x="855" y="270" fill="#2e2d2d"/><rect width="45" height="45" x="900" y="270" fill="#f8f8f8"/><rect width="45" height="45" x="0" y="315" fill="#f8f8f8"/><rect width="45" height="45" x="45" y="315" fill="#2e2d2d"/><rect width="45" height="45" x="90" y="315" fill="#2e2d2d"/><rect width="45" height="45" x="135" y="315" fill="#2e2d2d"/><rect width="45" height="45" x="180" y="315" fill="#8270bb"/><rect width="45" height="45" x="225" y="315" fill="#2e2d2d"/><rect width="45" height="45" x="270" y="315" fill="#2e2d2d"/><rect width="45" height="45" x="315" y="315" fill="#2e2d2d"/><rect width="45" height="45" x="360" y="315" fill="#2e2d2d"/><rect width="45" height="45" x="405" y="315" fill="#f8f8f8"/><rect width="45" height="45" x="450" y="315" fill="#2e2d2d"/><rect width="45" height="45" x="495" y="315" fill="#f8f8f8"/><rect width="45" height="45" x="540" y="315" fill="#8270bb"/><rect width="45" height="45" x="585" y="315" fill="#8270bb"/><rect width="45" height="45" x="630" y="315" fill="#8270bb"/><rect width="45" height="45" x="675" y="315" fill="#f8f8f8"/><rect width="45" height="45" x="720" y="315" fill="#2e2d2d"/><rect width="45" height="45" x="765" y="315" fill="#2e2d2d"/><rect width="45" height="45" x="810" y="315" fill="#8270bb"/><rect width="45" height="45" x="855" y="315" fill="#8270bb"/><rect width="45" height="45" x="900" y="315" fill="#8270bb"/><rect width="45" height="45" x="0" y="360" fill="#f8f8f8"/><rect width="45" height="45" x="45" y="360" fill="#8270bb"/><rect width="45" height="45" x="90" y="360" fill="#8270bb"/><rect width="45" height="45" x="135" y="360" fill="#8270bb"/><rect width="45" height="45" x="180" y="360" fill="#f8f8f8"/><rect width="45" height="45" x="225" y="360" fill="#f8f8f8"/><rect width="45" height="45" x="270" y="360" fill="#2e2d2d"/><rect width="45" height="45" x="315" y="360" fill="#8270bb"/><rect width="45" height="45" x="360" y="360" fill="#8270bb"/><rect width="45" height="45" x="405" y="360" fill="#8270bb"/><rect width="45" height="45" x="450" y="360" fill="#f8f8f8"/><rect width="45" height="45" x="495" y="360" fill="#f8f8f8"/><rect width="45" height="45" x="540" y="360" fill="#8270bb"/><rect width="45" height="45" x="585" y="360" fill="#8270bb"/><rect width="45" height="45" x="630" y="360" fill="#8270bb"/><rect width="45" height="45" x="675" y="360" fill="#2e2d2d"/><rect width="45" height="45" x="720" y="360" fill="#f8f8f8"/><rect width="45" height="45" x="765" y="360" fill="#8270bb"/><rect width="45" height="45" x="810" y="360" fill="#2e2d2d"/><rect width="45" height="45" x="855" y="360" fill="#8270bb"/><rect width="45" height="45" x="900" y="360" fill="#2e2d2d"/><rect width="45" height="45" x="0" y="405" fill="#2e2d2d"/><rect width="45" height="45" x="45" y="405" fill="#8270bb"/><rect width="45" height="45" x="90" y="405" fill="#2e2d2d"/><rect width="45" height="45" x="135" y="405" fill="#2e2d2d"/><rect width="45" height="45" x="180" y="405" fill="#f8f8f8"/><rect width="45" height="45" x="225" y="405" fill="#2e2d2d"/><rect width="45" height="45" x="270" y="405" fill="#2e2d2d"/><rect width="45" height="45" x="315" y="405" fill="#f8f8f8"/><rect width="45" height="45" x="360" y="405" fill="#f8f8f8"/><rect width="45" height="45" x="405" y="405" fill="#2e2d2d"/><rect width="45" height="45" x="450" y="405" fill="#8270bb"/><rect width="45" height="45" x="495" y="405" fill="#8270bb"/><rect width="45" height="45" x="540" y="405" fill="#8270bb"/><rect width="45" height="45" x="585" y="405" fill="#f8f8f8"/><rect width="45" height="45" x="630" y="405" fill="#8270bb"/><rect width="45" height="45" x="675" y="405" fill="#f8f8f8"/><rect width="45" height="45" x="720" y="405" fill="#8270bb"/><rect width="45" height="45" x="765" y="405" fill="#f8f8f8"/><rect width="45" height="45" x="810" y="405" fill="#f8f8f8"/><rect width="45" height="45" x="855" y="405" fill="#f8f8f8"/><rect width="45" height="45" x="900" y="405" fill="#2e2d2d"/><rect width="45" height="45" x="0" y="450" fill="#8270bb"/><rect width="45" height="45" x="45" y="450" fill="#8270bb"/><rect width="45" height="45" x="90" y="450" fill="#f8f8f8"/><rect width="45" height="45" x="135" y="450" fill="#f8f8f8"/><rect width="45" height="45" x="180" y="450" fill="#8270bb"/><rect width="45" height="45" x="225" y="450" fill="#2e2d2d"/><rect width="45" height="45" x="270" y="450" fill="#8270bb"/><rect width="45" height="45" x="315" y="450" fill="#2e2d2d"/><rect width="45" height="45" x="360" y="450" fill="#f8f8f8"/><rect width="45" height="45" x="405" y="450" fill="#2e2d2d"/><rect width="45" height="45" x="450" y="450" fill="#8270bb"/><rect width="45" height="45" x="495" y="450" fill="#8270bb"/><rect width="45" height="45" x="540" y="450" fill="#2e2d2d"/><rect width="45" height="45" x="585" y="450" fill="#8270bb"/><rect width="45" height="45" x="630" y="450" fill="#f8f8f8"/><rect width="45" height="45" x="675" y="450" fill="#f8f8f8"/><rect width="45" height="45" x="720" y="450" fill="#8270bb"/><rect width="45" height="45" x="765" y="450" fill="#8270bb"/><rect width="45" height="45" x="810" y="450" fill="#2e2d2d"/><rect width="45" height="45" x="855" y="450" fill="#8270bb"/><rect width="45" height="45" x="900" y="450" fill="#2e2d2d"/><rect width="45" height="45" x="0" y="495" fill="#8270bb"/><rect width="45" height="45" x="45" y="495" fill="#2e2d2d"/><rect width="45" height="45" x="90" y="495" fill="#8270bb"/><rect width="45" height="45" x="135" y="495" fill="#f8f8f8"/><rect width="45" height="45" x="180" y="495" fill="#8270bb"/><rect width="45" height="45" x="225" y="495" fill="#f8f8f8"/><rect width="45" height="45" x="270" y="495" fill="#2e2d2d"/><rect width="45" height="45" x="315" y="495" fill="#2e2d2d"/><rect width="45" height="45" x="360" y="495" fill="#2e2d2d"/><rect width="45" height="45" x="405" y="495" fill="#2e2d2d"/><rect width="45" height="45" x="450" y="495" fill="#8270bb"/><rect width="45" height="45" x="495" y="495" fill="#2e2d2d"/><rect width="45" height="45" x="540" y="495" fill="#8270bb"/><rect width="45" height="45" x="585" y="495" fill="#2e2d2d"/><rect width="45" height="45" x="630" y="495" fill="#8270bb"/><rect width="45" height="45" x="675" y="495" fill="#2e2d2d"/><rect width="45" height="45" x="720" y="495" fill="#8270bb"/><rect width="45" height="45" x="765" y="495" fill="#f8f8f8"/><rect width="45" height="45" x="810" y="495" fill="#8270bb"/><rect width="45" height="45" x="855" y="495" fill="#8270bb"/><rect width="45" height="45" x="900" y="495" fill="#2e2d2d"/><rect width="45" height="45" x="0" y="540" fill="#2e2d2d"/><rect width="45" height="45" x="45" y="540" fill="#f8f8f8"/><rect width="45" height="45" x="90" y="540" fill="#2e2d2d"/><rect width="45" height="45" x="135" y="540" fill="#8270bb"/><rect width="45" height="45" x="180" y="540" fill="#2e2d2d"/><rect width="45" height="45" x="225" y="540" fill="#f8f8f8"/><rect width="45" height="45" x="270" y="540" fill="#8270bb"/><rect width="45" height="45" x="315" y="540" fill="#f8f8f8"/><rect width="45" height="45" x="360" y="540" fill="#8270bb"/><rect width="45" height="45" x="405" y="540" fill="#f8f8f8"/><rect width="45" height="45" x="450" y="540" fill="#8270bb"/><rect width="45" height="45" x="495" y="540" fill="#8270bb"/><rect width="45" height="45" x="540" y="540" fill="#f8f8f8"/><rect width="45" height="45" x="585" y="540" fill="#f8f8f8"/><rect width="45" height="45" x="630" y="540" fill="#8270bb"/><rect width="45" height="45" x="675" y="540" fill="#8270bb"/><rect width="45" height="45" x="720" y="540" fill="#f8f8f8"/><rect width="45" height="45" x="765" y="540" fill="#2e2d2d"/><rect width="45" height="45" x="810" y="540" fill="#8270bb"/><rect width="45" height="45" x="855" y="540" fill="#f8f8f8"/><rect width="45" height="45" x="900" y="540" fill="#2e2d2d"/></svg>