<?xml version="1.0" encoding="UTF-8"?>
<svg version="1.1" xmlns="http://www.w3.org/2000/svg" width="512" height="512">
<path d="M0 0 C0.78536133 0.34256836 1.57072266 0.68513672 2.37988281 1.03808594 C26.4333955 11.6374367 48.86577477 25.92675476 68 44 C69.28727918 45.10927865 70.57888284 46.21356091 71.875 47.3125 C81.15627086 55.43126825 89.41931206 64.28220322 97 74 C97.78890625 74.98355469 98.5778125 75.96710938 99.390625 76.98046875 C126.60532239 111.20615467 144.7708074 152.6887466 151 196 C151.17587646 197.19447754 151.35175293 198.38895508 151.53295898 199.61962891 C153.16176396 211.45108101 153.35904467 223.19599934 153.3125 235.125 C153.31034485 236.11956207 153.3081897 237.11412415 153.30596924 238.13882446 C153.25560229 252.62165106 152.89634203 266.76489867 150 281 C149.80664062 281.99805664 149.61328125 282.99611328 149.4140625 284.02441406 C141.53044068 323.91700041 125.02151616 362.50899318 99 394 C98.57009766 394.52464844 98.14019531 395.04929687 97.69726562 395.58984375 C80.33367853 416.73032789 80.33367853 416.73032789 70.21484375 425.15234375 C68.46854723 426.6091308 66.76002023 428.11119359 65.06640625 429.62890625 C31.02158753 460.00386032 -12.2870949 479.78534303 -57 488 C-57.80598633 488.16081055 -58.61197266 488.32162109 -59.44238281 488.48730469 C-87.27323962 493.88865145 -120.23767799 493.65659345 -148 488 C-148.9163623 487.81775879 -149.83272461 487.63551758 -150.77685547 487.44775391 C-157.22991873 486.13610223 -163.62144632 484.63392752 -170 483 C-171.11616699 482.71817871 -171.11616699 482.71817871 -172.25488281 482.43066406 C-190.65908008 477.69236454 -208.28462264 469.97142824 -225 461 C-225.58652344 460.68740234 -226.17304688 460.37480469 -226.77734375 460.05273438 C-247.53707679 448.8868646 -265.98900193 434.23446178 -283 418 C-283.87269531 417.16855469 -284.74539063 416.33710938 -285.64453125 415.48046875 C-291.58858025 409.68251005 -296.87723032 403.52867559 -302 397 C-302.80308594 395.99066406 -303.60617187 394.98132813 -304.43359375 393.94140625 C-346.272153 340.91746974 -365.2809612 272.68545044 -357.75 205.58203125 C-352.63000706 165.34837885 -339.21875268 123.96441338 -315 91 C-314.56751953 90.40203613 -314.13503906 89.80407227 -313.68945312 89.18798828 C-298.96511856 68.86376104 -282.23022811 49.05257078 -262 34 C-261.34032227 33.50693359 -260.68064453 33.01386719 -260.00097656 32.50585938 C-250.63544571 25.53443111 -241.19457037 18.7192149 -231 13 C-230.21625 12.55833496 -229.4325 12.11666992 -228.625 11.66162109 C-158.9200655 -27.17139208 -73.29104138 -32.31564649 0 0 Z M-100 81 C-100 103.77 -100 126.54 -100 150 C-95.71543596 148.57181199 -92.8089992 147.48701477 -89.078125 145.26953125 C-88.14718018 144.72087402 -87.21623535 144.1722168 -86.25708008 143.60693359 C-84.76857544 142.71868896 -84.76857544 142.71868896 -83.25 141.8125 C-81.11378565 140.54992744 -78.97704729 139.28824115 -76.83984375 138.02734375 C-75.72722168 137.36976074 -74.61459961 136.71217773 -73.46826172 136.03466797 C-69.93382513 133.95426778 -66.37762568 131.91302998 -62.81640625 129.87890625 C-62.22836212 129.54246597 -61.64031799 129.2060257 -61.03445435 128.85939026 C-58.181294 127.22726762 -55.32613228 125.59883544 -52.46777344 123.97583008 C-51.43297852 123.38310303 -50.39818359 122.79037598 -49.33203125 122.1796875 C-48.42171143 121.66132324 -47.5113916 121.14295898 -46.57348633 120.60888672 C-43.87116647 118.91945613 -41.44891336 117.03584032 -39 115 C-39.57105469 114.67950684 -40.14210938 114.35901367 -40.73046875 114.02880859 C-54.01760748 106.56403491 -67.2356244 98.99099771 -80.38671875 91.2890625 C-81.29470215 90.75829102 -82.20268555 90.22751953 -83.13818359 89.68066406 C-85.19755287 88.47125457 -87.25199016 87.25343262 -89.30322266 86.03027344 C-90.38522949 85.38864258 -91.46723633 84.74701172 -92.58203125 84.0859375 C-93.57050049 83.49603027 -94.55896973 82.90612305 -95.57739258 82.29833984 C-97.83570338 80.84254439 -97.83570338 80.84254439 -100 81 Z M-111.28515625 83.3515625 C-112.19676514 83.86638184 -113.10837402 84.38120117 -114.04760742 84.91162109 C-115.04252197 85.47703613 -116.03743652 86.04245117 -117.0625 86.625 C-118.59644409 87.49439209 -118.59644409 87.49439209 -120.16137695 88.38134766 C-130.5339288 94.27579453 -140.8382658 100.28584335 -151.13037109 106.31933594 C-156.0828427 109.21986465 -161.04159256 112.10963381 -166 115 C-163.50615208 117.79563775 -160.74784919 119.43253404 -157.49609375 121.265625 C-155.81374634 122.21973267 -155.81374634 122.21973267 -154.09741211 123.19311523 C-152.87748391 123.87881911 -151.6575122 124.56444559 -150.4375 125.25 C-148.55028823 126.31710982 -146.66402691 127.38588576 -144.77784729 128.45481873 C-143.48066169 129.18987317 -142.18316224 129.92437401 -140.88536072 130.65834045 C-136.39806964 133.19834871 -131.92812729 135.76679608 -127.46875 138.35546875 C-126.8719191 138.70165253 -126.2750882 139.0478363 -125.66017151 139.4045105 C-122.8015709 141.06324927 -119.94468209 142.72486032 -117.08959961 144.38964844 C-115.55831421 145.27765137 -115.55831421 145.27765137 -113.99609375 146.18359375 C-113.10075928 146.70493896 -112.2054248 147.22628418 -111.28295898 147.76342773 C-108.9470882 149.11417902 -108.9470882 149.11417902 -106 150 C-106 127.23 -106 104.46 -106 81 C-107.92344732 81 -109.66015813 82.43269668 -111.28515625 83.3515625 Z M-169 121 C-169 143.77 -169 166.54 -169 190 C-165.13650609 188.45460244 -161.87579302 186.88793449 -158.30078125 184.83203125 C-157.18558105 184.19281738 -156.07038086 183.55360352 -154.92138672 182.89501953 C-153.71833959 182.20099348 -152.51537932 181.50681685 -151.3125 180.8125 C-150.07321097 180.09986886 -148.83378855 179.38746962 -147.59423828 178.67529297 C-145.02517984 177.1985491 -142.45730434 175.71977425 -139.89013672 174.23974609 C-136.69529294 172.39875651 -133.49610216 170.56549896 -130.29490662 168.73558044 C-127.32011673 167.03464745 -124.34775308 165.32949013 -121.375 163.625 C-120.26165283 162.98925049 -119.14830566 162.35350098 -118.0012207 161.69848633 C-116.97730225 161.10962646 -115.95338379 160.5207666 -114.8984375 159.9140625 C-113.99786621 159.3979541 -113.09729492 158.8818457 -112.16943359 158.35009766 C-109.90090661 157.05206267 -109.90090661 157.05206267 -108 155 C-108.66829834 154.6282666 -109.33659668 154.2565332 -110.02514648 153.87353516 C-124.2365904 145.96135612 -138.36991246 137.9512607 -152.33154297 129.60644531 C-153.92770845 128.65294221 -155.52486108 127.70108948 -157.12304688 126.75097656 C-158.6331819 125.85317899 -160.14110835 124.95165298 -161.64648438 124.04589844 C-165.08492263 121.78928773 -165.08492263 121.78928773 -169 121 Z M-43.40625 123.97265625 C-44.53087646 124.6181543 -45.65550293 125.26365234 -46.81420898 125.92871094 C-48.04291002 126.63979424 -49.27150453 127.35106162 -50.5 128.0625 C-51.75510322 128.78580548 -53.01039514 129.50878361 -54.26586914 130.23144531 C-56.87002397 131.73115144 -59.47273447 133.23332773 -62.07470703 134.73681641 C-65.25819959 136.57468566 -68.44800639 138.40117779 -71.6413269 140.22190857 C-73.43492677 141.24465942 -75.22742193 142.26931769 -77.01953125 143.29467773 C-79.25626194 144.57424745 -81.49448745 145.85120858 -83.734375 147.12524414 C-84.74886719 147.70781982 -85.76335937 148.29039551 -86.80859375 148.890625 C-87.69345459 149.39625977 -88.57831543 149.90189453 -89.48999023 150.42285156 C-92.16585019 152.1042109 -94.56992843 153.98307605 -97 156 C-96.2879541 156.40613525 -95.5759082 156.81227051 -94.84228516 157.23071289 C-81.40105584 164.89928567 -67.96732027 172.5804248 -54.5625 180.3125 C-53.47469238 180.93970947 -52.38688477 181.56691895 -51.26611328 182.21313477 C-43.30214983 186.8110368 -43.30214983 186.8110368 -40.30053711 188.68823242 C-38.15180685 190.16511152 -38.15180685 190.16511152 -36 190 C-36 167.23 -36 144.46 -36 121 C-38.99639237 121 -40.81999365 122.48163015 -43.40625 123.97265625 Z M-31 121 C-31 143.77 -31 166.54 -31 190 C-27.9135218 188.76540872 -25.26074518 187.68785459 -22.41796875 186.109375 C-21.74540039 185.7366748 -21.07283203 185.36397461 -20.37988281 184.97998047 C-19.65639648 184.57408691 -18.93291016 184.16819336 -18.1875 183.75 C-17.41631836 183.31961426 -16.64513672 182.88922852 -15.85058594 182.44580078 C-7.04931033 177.50786573 1.65183703 172.3975779 10.359375 167.296875 C16.87756461 163.48038973 23.42915784 159.72501968 30 156 C25.3456234 151.90414859 20.0822506 149.10957069 14.6875 146.125 C4.09320962 140.20451078 -6.40338184 134.13040291 -16.875 127.99609375 C-17.75800781 127.48030762 -18.64101563 126.96452148 -19.55078125 126.43310547 C-21.09276292 125.53084945 -22.63220997 124.62423376 -24.16796875 123.71142578 C-27.36680284 121.67014708 -27.36680284 121.67014708 -31 121 Z M-183.5625 125.125 C-184.74960571 125.78628906 -184.74960571 125.78628906 -185.96069336 126.4609375 C-196.72743817 132.4897349 -207.36105089 138.74945905 -218 145 C-218.89960449 145.52819336 -219.79920898 146.05638672 -220.72607422 146.60058594 C-225.48652868 149.3961941 -230.24457309 152.19584881 -235 155 C-231.57142523 157.86477513 -228.12061062 160.20603564 -224.23046875 162.3984375 C-223.10503662 163.03644287 -221.97960449 163.67444824 -220.82006836 164.33178711 C-219.6092313 165.01289196 -218.39837476 165.69396217 -217.1875 166.375 C-214.67064444 167.79861362 -212.15556567 169.22535064 -209.640625 170.65234375 C-209.00503159 171.01250076 -208.36943817 171.37265778 -207.71458435 171.74372864 C-200.22147145 175.99644156 -192.79516999 180.36246578 -185.37768555 184.74560547 C-183.98223511 185.56569092 -183.98223511 185.56569092 -182.55859375 186.40234375 C-181.74704834 186.88179443 -180.93550293 187.36124512 -180.09936523 187.85522461 C-177.91535973 189.12629329 -177.91535973 189.12629329 -175 190 C-175 167.23 -175 144.46 -175 121 C-177.73361111 121 -181.14964365 123.77776411 -183.5625 125.125 Z M-238 161 C-238 183.77 -238 206.54 -238 230 C-234.13650609 228.45460244 -230.87579302 226.88793449 -227.30078125 224.83203125 C-225.62773926 223.87296875 -225.62773926 223.87296875 -223.92089844 222.89453125 C-222.71805143 222.20060322 -221.51525303 221.50659091 -220.3125 220.8125 C-219.07469644 220.10129759 -217.83673861 219.39036362 -216.59863281 218.6796875 C-213.37971364 216.83077913 -210.16321592 214.97770365 -206.9475708 213.12310791 C-205.01341101 212.00773374 -203.07880124 210.89314424 -201.14404297 209.77880859 C-193.75923658 205.5251862 -186.37783037 201.26571389 -179 197 C-179 196.01 -179 195.02 -179 194 C-179.66829834 193.6282666 -180.33659668 193.2565332 -181.02514648 192.87353516 C-195.91028226 184.58628019 -210.74616959 176.24419268 -225.30078125 167.38671875 C-225.99606934 166.96495361 -226.69135742 166.54318848 -227.40771484 166.10864258 C-228.72706431 165.30678152 -230.04394894 164.50084583 -231.35791016 163.69018555 C-234.45345297 161.65309386 -234.45345297 161.65309386 -238 161 Z M26.03125 163.75390625 C24.99718018 164.35420654 23.96311035 164.95450684 22.89770508 165.57299805 C21.7764624 166.22953369 20.65521973 166.88606934 19.5 167.5625 C18.33839871 168.23849086 17.17652968 168.91402185 16.0144043 169.58911133 C13.58196504 171.00261224 11.15071547 172.41812939 8.72021484 173.83496094 C2.7623364 177.30545979 -3.21366074 180.74457845 -9.1875 184.1875 C-11.30598979 185.41015589 -13.42447939 186.63281211 -15.54296875 187.85546875 C-19.68967864 190.24695752 -23.84127671 192.6294689 -28 195 C-23.99350622 198.43858301 -19.80721097 200.89019444 -15.1875 203.375 C-5.6152535 208.60597121 3.79988177 214.09108503 13.2109375 219.60546875 C14.1503418 220.15509277 15.08974609 220.7047168 16.05761719 221.27099609 C18.15103841 222.50113293 20.23975041 223.73929903 22.32519531 224.98291016 C23.94699707 225.94463135 23.94699707 225.94463135 25.6015625 226.92578125 C26.58721191 227.51399658 27.57286133 228.10221191 28.58837891 228.70825195 C30.83787192 230.15738898 30.83787192 230.15738898 33 230 C33 207.23 33 184.46 33 161 C30.12340442 161 28.51241452 162.30604957 26.03125 163.75390625 Z M-31 201 C-31 223.77 -31 246.54 -31 270 C-26.71543596 268.57181199 -23.8089992 267.48701477 -20.078125 265.26953125 C-19.14718018 264.72087402 -18.21623535 264.1722168 -17.25708008 263.60693359 C-15.76857544 262.71868896 -15.76857544 262.71868896 -14.25 261.8125 C-12.11378565 260.54992744 -9.97704729 259.28824115 -7.83984375 258.02734375 C-6.72722168 257.36976074 -5.61459961 256.71217773 -4.46826172 256.03466797 C-0.93382513 253.95426778 2.62237432 251.91302998 6.18359375 249.87890625 C6.77163788 249.54246597 7.35968201 249.2060257 7.96554565 248.85939026 C10.818706 247.22726762 13.67386772 245.59883544 16.53222656 243.97583008 C17.56702148 243.38310303 18.60181641 242.79037598 19.66796875 242.1796875 C20.57828857 241.66132324 21.4886084 241.14295898 22.42651367 240.60888672 C25.12883353 238.91945613 27.55108664 237.03584032 30 235 C29.2879541 234.59386475 28.5759082 234.18772949 27.84228516 233.76928711 C14.40105584 226.10071433 0.96732027 218.4195752 -12.4375 210.6875 C-14.06921143 209.74668579 -14.06921143 209.74668579 -15.73388672 208.78686523 C-23.69785017 204.1889632 -23.69785017 204.1889632 -26.69946289 202.31176758 C-28.84819315 200.83488848 -28.84819315 200.83488848 -31 201 Z M-180.96875 203.7109375 C-182.00644531 204.29133789 -183.04414063 204.87173828 -184.11328125 205.46972656 C-185.23089844 206.0984668 -186.34851563 206.72720703 -187.5 207.375 C-188.63824219 208.01405273 -189.77648437 208.65310547 -190.94921875 209.31152344 C-199.33563179 214.0330266 -207.65892785 218.84904879 -215.92919922 223.77050781 C-219.7993191 226.06830594 -223.68194291 228.34488952 -227.5625 230.625 C-229.00135003 231.47127264 -230.44015686 232.31761877 -231.87890625 233.1640625 C-232.90886719 233.76992187 -233.93882812 234.37578125 -235 235 C-232.50615208 237.79563775 -229.74784919 239.43253404 -226.49609375 241.265625 C-224.81374634 242.21973267 -224.81374634 242.21973267 -223.09741211 243.19311523 C-221.87748391 243.87881911 -220.6575122 244.56444559 -219.4375 245.25 C-217.55028823 246.31710982 -215.66402691 247.38588576 -213.77784729 248.45481873 C-212.48066169 249.18987317 -211.18316224 249.92437401 -209.88536072 250.65834045 C-205.39806964 253.19834871 -200.92812729 255.76679608 -196.46875 258.35546875 C-195.8719191 258.70165253 -195.2750882 259.0478363 -194.66017151 259.4045105 C-191.8015709 261.06324927 -188.94468209 262.72486032 -186.08959961 264.38964844 C-184.55831421 265.27765137 -184.55831421 265.27765137 -182.99609375 266.18359375 C-182.10075928 266.70493896 -181.2054248 267.22628418 -180.28295898 267.76342773 C-177.9470882 269.11417902 -177.9470882 269.11417902 -175 270 C-175 247.23 -175 224.46 -175 201 C-177.08578892 201 -179.22248371 202.73325736 -180.96875 203.7109375 Z M-238 241 C-238 263.77 -238 286.54 -238 310 C-234.50527389 308.60210955 -231.55006512 307.28283805 -228.32421875 305.453125 C-227.42517822 304.94458984 -226.5261377 304.43605469 -225.59985352 303.91210938 C-224.63877686 303.36361328 -223.6777002 302.81511719 -222.6875 302.25 C-221.18497681 301.39631836 -221.18497681 301.39631836 -219.65209961 300.52539062 C-212.09927171 296.22322854 -204.57404139 291.87379412 -197.0625 287.5 C-196.07531982 286.92540039 -195.08813965 286.35080078 -194.07104492 285.75878906 C-188.65555389 282.59313818 -183.30071577 279.35440809 -178 276 C-180.49384792 273.20436225 -183.25215081 271.56746596 -186.50390625 269.734375 C-187.62547119 269.09830322 -188.74703613 268.46223145 -189.90258789 267.80688477 C-191.12251609 267.12118089 -192.3424878 266.43555441 -193.5625 265.75 C-195.44971177 264.68289018 -197.33597309 263.61411424 -199.22215271 262.54518127 C-200.51933831 261.81012683 -201.81683776 261.07562599 -203.11463928 260.34165955 C-207.60193036 257.80165129 -212.07187271 255.23320392 -216.53125 252.64453125 C-217.1280809 252.29834747 -217.7249118 251.9521637 -218.33982849 251.5954895 C-221.1984291 249.93675073 -224.05531791 248.27513968 -226.91040039 246.61035156 C-227.93125732 246.01834961 -228.95211426 245.42634766 -230.00390625 244.81640625 C-230.89924072 244.29506104 -231.7945752 243.77371582 -232.71704102 243.23657227 C-235.0529118 241.88582098 -235.0529118 241.88582098 -238 241 Z M26.46875 243.53515625 C25.52523682 244.09017822 24.58172363 244.6452002 23.60961914 245.21704102 C22.58344482 245.82604248 21.55727051 246.43504395 20.5 247.0625 C18.32197584 248.34436402 16.14357687 249.62559134 13.96484375 250.90625 C13.39946396 251.23923599 12.83408417 251.57222198 12.25157166 251.91529846 C5.87659678 255.66810773 -0.52897471 259.3673657 -6.9375 263.0625 C-8.54238281 263.98977905 -8.54238281 263.98977905 -10.1796875 264.93579102 C-16.090227 268.34525181 -22.02163661 271.71081351 -28 275 C-23.3456234 279.09585141 -18.0822506 281.89042931 -12.6875 284.875 C-2.09320962 290.79548922 8.40338184 296.86959709 18.875 303.00390625 C19.75800781 303.51969238 20.64101563 304.03547852 21.55078125 304.56689453 C23.09276292 305.46915055 24.63220997 306.37576624 26.16796875 307.28857422 C29.36680284 309.32985292 29.36680284 309.32985292 33 310 C33 287.23 33 264.46 33 241 C30.24259245 241 28.84195193 242.13027418 26.46875 243.53515625 Z M-169 280 C-169 303.1 -169 326.2 -169 350 C-161.05208905 346.02604453 -153.37040033 342.01248757 -145.75 337.5 C-143.67194352 336.27852926 -141.59381624 335.05717896 -139.515625 333.8359375 C-137.92331055 332.89766113 -137.92331055 332.89766113 -136.29882812 331.94042969 C-130.7087688 328.65225684 -125.10361746 325.38999403 -119.5 322.125 C-117.46868223 320.94022036 -115.43742581 319.75533551 -113.40625 318.5703125 C-111.9375 317.71354167 -110.46875 316.85677083 -109 316 C-111.9433916 312.8024461 -114.88779138 310.72301667 -118.671875 308.6015625 C-119.80044922 307.9636377 -120.92902344 307.32571289 -122.09179688 306.66845703 C-123.31118175 305.98727575 -124.53058316 305.30612405 -125.75 304.625 C-127.63688213 303.56160696 -129.52237263 302.49577743 -131.40771484 301.42965698 C-132.69280665 300.70299442 -133.9782917 299.97702687 -135.26416016 299.2517395 C-142.73643904 295.03230367 -150.13552192 290.68932402 -157.53417969 286.34228516 C-158.46133789 285.79878418 -159.38849609 285.2552832 -160.34375 284.6953125 C-161.15005859 284.22109863 -161.95636719 283.74688477 -162.78710938 283.25830078 C-164.81993351 282.10238997 -166.90839702 281.04580149 -169 280 Z M-41.87109375 282.75390625 C-42.90838623 283.35420654 -43.94567871 283.95450684 -45.0144043 284.57299805 C-46.70883667 285.55780151 -46.70883667 285.55780151 -48.4375 286.5625 C-49.60379092 287.2382643 -50.7702152 287.91379847 -51.93676758 288.58911133 C-54.37959112 290.00349586 -56.82182378 291.41889308 -59.26367188 292.83496094 C-65.23278142 296.29533123 -71.21060846 299.74059583 -77.1875 303.1875 C-78.26636475 303.81019775 -79.34522949 304.43289551 -80.45678711 305.07446289 C-85.63156769 308.06077919 -90.8093889 311.04127826 -96 314 C-94.7220314 317.8339058 -93.52549332 318.10636815 -90.03125 320.00390625 C-88.99339355 320.57471924 -87.95553711 321.14553223 -86.88623047 321.73364258 C-85.76877441 322.33716553 -84.65131836 322.94068848 -83.5 323.5625 C-81.19975734 324.82673684 -78.90027979 326.09236675 -76.6015625 327.359375 C-74.90628418 328.29040039 -74.90628418 328.29040039 -73.17675781 329.24023438 C-69.03718246 331.53335297 -64.94634581 333.90076778 -60.875 336.3125 C-60.21169678 336.70429443 -59.54839355 337.09608887 -58.86499023 337.49975586 C-55.46338258 339.51644432 -52.07731879 341.55747696 -48.69921875 343.61328125 C-48.00393066 344.03504639 -47.30864258 344.45681152 -46.59228516 344.89135742 C-45.27293569 345.69321848 -43.95605106 346.49915417 -42.64208984 347.30981445 C-39.54654703 349.34690614 -39.54654703 349.34690614 -36 350 C-36 326.9 -36 303.8 -36 280 C-38.06739541 280 -40.15833658 281.76014354 -41.87109375 282.75390625 Z M-31 281 C-31 304.1 -31 327.2 -31 351 C-26.38 348.36 -21.76 345.72 -17 343 C-10.9375 339.61328125 -10.9375 339.61328125 -7.99389648 337.97705078 C4.79964077 330.86408193 17.4399185 323.51677511 30 316 C27.07024778 313.7124904 24.05999635 311.80021208 20.8359375 309.953125 C19.80815186 309.36233154 18.78036621 308.77153809 17.72143555 308.1628418 C16.06494995 307.21598511 16.06494995 307.21598511 14.375 306.25 C12.63363119 305.25111629 10.89226586 304.25222647 9.15110779 303.25297546 C7.94570266 302.5613264 6.74010302 301.87001623 5.53431702 301.17903137 C1.2392814 298.71649673 -3.04477555 296.23560943 -7.32421875 293.74609375 C-8.50759915 293.05883215 -9.69102942 292.37165642 -10.87451172 291.68457031 C-13.12881491 290.37508302 -15.38179391 289.06331285 -17.63330078 287.74902344 C-19.17026611 286.85812012 -19.17026611 286.85812012 -20.73828125 285.94921875 C-21.63587158 285.42674561 -22.53346191 284.90427246 -23.45825195 284.3659668 C-26.34406668 282.75373608 -26.34406668 282.75373608 -31 281 Z M-181.30859375 283.97265625 C-182.43644287 284.6181543 -183.56429199 285.26365234 -184.72631836 285.92871094 C-185.96346748 286.63981988 -187.2005259 287.35108664 -188.4375 288.0625 C-189.69728925 288.78558241 -190.95713688 289.5085631 -192.21704102 290.23144531 C-194.83157548 291.73204933 -197.44526243 293.23411827 -200.05859375 294.73681641 C-203.2508273 296.57138705 -206.44732854 298.39834254 -209.64585876 300.22190857 C-211.43872119 301.24458977 -213.23044647 302.2692313 -215.02172852 303.29467773 C-217.25749096 304.5745163 -219.49489826 305.85148678 -221.73413086 307.12524414 C-222.74870361 307.70781982 -223.76327637 308.29039551 -224.80859375 308.890625 C-225.69345459 309.39625977 -226.57831543 309.90189453 -227.48999023 310.42285156 C-230.16585019 312.1042109 -232.56992843 313.98307605 -235 316 C-223.87739106 322.58371699 -212.69892382 329.06603101 -201.49267578 335.50634766 C-194.66875503 339.43575935 -187.87789421 343.41000008 -181.18701172 347.56274414 C-178.30734171 349.44196561 -178.30734171 349.44196561 -175 350 C-175 327.23 -175 304.46 -175 281 C-177.16258191 281 -179.52515843 282.94984369 -181.30859375 283.97265625 Z M-100 320 C-100 343.1 -100 366.2 -100 390 C-92.05226038 386.02613019 -84.36977104 382.01340817 -76.75 377.5 C-74.67210799 376.27564617 -72.59397522 375.05170087 -70.515625 373.828125 C-69.45408203 373.20228516 -68.39253906 372.57644531 -67.29882812 371.93164062 C-63.9137942 369.94952188 -60.51411908 367.99492042 -57.109375 366.046875 C-56.00239258 365.41072266 -54.89541016 364.77457031 -53.75488281 364.11914062 C-51.61157578 362.88833064 -49.46515637 361.66292219 -47.31542969 360.44335938 C-46.35540039 359.88970703 -45.39537109 359.33605469 -44.40625 358.765625 C-43.55353516 358.27868164 -42.70082031 357.79173828 -41.82226562 357.29003906 C-41.22091797 356.86432617 -40.61957031 356.43861328 -40 356 C-40 355.34 -40 354.68 -40 354 C-40.7120459 353.59386475 -41.4240918 353.18772949 -42.15771484 352.76928711 C-45.56384399 350.82600137 -48.969508 348.88190197 -52.375 346.9375 C-52.99804016 346.58184967 -53.62108032 346.22619934 -54.26300049 345.85977173 C-61.33094029 341.82438995 -68.393295 337.77982302 -75.4375 333.703125 C-76.02649078 333.3624147 -76.61548157 333.02170441 -77.22232056 332.67066956 C-80.03163501 331.04517042 -82.83966176 329.41750509 -85.64599609 327.78686523 C-86.65742676 327.20106689 -87.66885742 326.61526855 -88.7109375 326.01171875 C-89.59056152 325.50084717 -90.47018555 324.98997559 -91.37646484 324.46362305 C-94.20310225 322.88669291 -97.10495766 321.44752117 -100 320 Z M-113.40625 323.97265625 C-115.0934314 324.94114502 -115.0934314 324.94114502 -116.81469727 325.92919922 C-118.04319828 326.64018412 -119.27163095 327.35128713 -120.5 328.0625 C-121.75361752 328.78437713 -123.00744482 329.50589008 -124.26147461 330.22705078 C-126.86437582 331.7249286 -129.46574183 333.22542419 -132.06591797 334.72802734 C-135.88569293 336.93512649 -139.7100672 339.13415904 -143.53515625 341.33203125 C-145.87785848 342.67924619 -148.22020154 344.02708292 -150.5625 345.375 C-151.66722656 346.01058838 -152.77195313 346.64617676 -153.91015625 347.30102539 C-154.93109375 347.89004639 -155.95203125 348.47906738 -157.00390625 349.0859375 C-157.89924072 349.6020459 -158.7945752 350.1181543 -159.71704102 350.64990234 C-161.51188064 351.71133568 -163.26500255 352.84333503 -165 354 C-163.7220314 357.8339058 -162.52549332 358.10636815 -159.03125 360.00390625 C-157.99339355 360.57471924 -156.95553711 361.14553223 -155.88623047 361.73364258 C-154.76877441 362.33716553 -153.65131836 362.94068848 -152.5 363.5625 C-150.19975734 364.82673684 -147.90027979 366.09236675 -145.6015625 367.359375 C-143.90628418 368.29040039 -143.90628418 368.29040039 -142.17675781 369.24023438 C-138.03719056 371.53334848 -133.94621505 373.90055759 -129.875 376.3125 C-128.88113281 376.90019165 -128.88113281 376.90019165 -127.8671875 377.49975586 C-124.45735789 379.52307366 -121.05906582 381.56520035 -117.6640625 383.61328125 C-116.9642627 384.03504639 -116.26446289 384.45681152 -115.54345703 384.89135742 C-114.21220852 385.69503708 -112.88237953 386.50107429 -111.55419922 387.30981445 C-108.95170331 389.18355687 -108.95170331 389.18355687 -106 390 C-106 367.23 -106 344.46 -106 321 C-108.99639237 321 -110.81999365 322.48163015 -113.40625 323.97265625 Z " fill="#221E1F" transform="translate(359,21)"/>
</svg>
